<svg width="1149" height="264" viewBox="0 0 1149 264" fill="none" xmlns="http://www.w3.org/2000/svg">
<path d="M12.2383 87.1765C7.68099 82.8471 4.49089 78.2898 2.66797 73.5046C1.07292 68.4916 0.275391 63.4786 0.275391 58.4656C0.275391 47.9838 2.09831 39.211 5.74414 32.1472C9.61784 25.0834 14.2891 19.3868 19.7578 15.0574C25.4544 10.7279 31.6068 7.65177 38.2148 5.82886C44.8229 4.00594 50.9753 3.09448 56.6719 3.09448C62.1406 3.09448 67.4954 3.89201 72.7363 5.48706C78.2051 6.85425 83.2181 8.90503 87.7754 11.6394C92.5605 14.1459 96.6621 17.336 100.08 21.2097C103.726 24.8556 106.574 28.8432 108.625 33.1726C108.625 33.6283 108.625 34.0841 108.625 34.5398C108.853 34.7677 108.967 35.1095 108.967 35.5652C108.967 39.6667 107.144 42.8569 103.498 45.1355C100.08 47.1863 97.1178 48.2117 94.6113 48.2117C91.6491 48.2117 89.4844 47.0723 88.1172 44.7937C84.4714 39.5528 79.5723 35.5652 73.4199 32.8308C67.4954 30.0964 61.2292 28.7292 54.6211 28.7292C51.431 28.9571 48.2409 29.7546 45.0508 31.1218C41.8607 32.2611 38.8984 34.0841 36.1641 36.5906C33.4297 38.8692 31.151 41.8315 29.3281 45.4773C27.7331 49.1231 26.9355 53.4526 26.9355 58.4656C26.9355 64.8458 29.6699 70.4285 35.1387 75.2136C40.8353 79.7709 47.5573 84.2143 55.3047 88.5437C63.2799 92.8731 71.4831 97.4304 79.9141 102.216C88.5729 107.001 95.8646 112.697 101.789 119.305C106.802 125.002 110.334 131.154 112.385 137.762C114.663 144.371 115.803 150.637 115.803 156.561C115.803 166.815 113.638 175.132 109.309 181.512C105.207 187.893 100.08 192.906 93.9277 196.552C88.0033 200.197 81.5091 202.704 74.4453 204.071C67.6094 205.438 61.457 206.122 55.9883 206.122C49.1523 206.122 42.4303 205.324 35.8223 203.729C29.4421 202.134 23.7454 199.969 18.7324 197.235C13.7194 194.729 9.61784 191.994 6.42773 189.032C3.46549 185.842 1.98438 182.652 1.98438 179.462C1.98438 176.272 2.89583 173.081 4.71875 169.891C6.76953 166.473 9.27604 164.764 12.2383 164.764C13.1497 164.764 14.2891 165.106 15.6562 165.79C24.543 172.398 32.1764 176.613 38.5566 178.436C44.9368 180.259 50.1777 181.171 54.2793 181.171C64.5332 181.171 72.8503 178.664 79.2305 173.651C85.6107 168.638 88.8008 161.802 88.8008 153.143C88.8008 147.902 87.3197 143.231 84.3574 139.13C81.3952 135.028 77.8633 131.382 73.7617 128.192C69.6602 125.002 65.3307 122.268 60.7734 119.989C56.2161 117.71 52.3424 115.774 49.1523 114.178C43.6836 111.444 37.873 108.14 31.7207 104.266C25.7962 100.393 19.3021 94.696 12.2383 87.1765ZM140.07 94.0125C138.247 91.5059 137.336 89.2273 137.336 87.1765C137.336 83.7585 138.931 80.7963 142.121 78.2898C145.311 75.7833 148.615 74.53 152.033 74.53C154.312 74.53 156.477 75.3276 158.527 76.9226C160.578 78.2898 162.287 79.9988 163.654 82.0496C165.249 84.1003 166.617 86.379 167.756 88.8855C169.123 91.1641 170.262 93.2149 171.174 95.0378C175.503 93.4428 180.63 92.0756 186.555 90.9363C192.707 89.5691 199.201 88.8855 206.037 88.8855C208.999 88.8855 212.645 89.1134 216.975 89.5691C221.304 89.797 225.52 90.9363 229.621 92.9871C233.951 94.81 237.824 97.8861 241.242 102.216C244.888 106.317 247.622 112.242 249.445 119.989C250.357 124.091 250.812 129.104 250.812 135.028C251.04 140.953 251.268 147.105 251.496 153.485C251.268 158.954 251.154 164.537 251.154 170.233C251.154 175.702 250.699 180.715 249.787 185.272C249.104 189.602 247.85 193.134 246.027 195.868C244.204 198.602 241.47 199.969 237.824 199.969C233.951 199.969 230.646 198.83 227.912 196.552C225.406 194.273 224.152 191.311 224.152 187.665C224.152 181.057 224.494 173.537 225.178 165.106C225.861 156.675 226.203 149.042 226.203 142.206C226.203 136.053 225.633 131.04 224.494 127.167C223.583 123.293 222.215 120.331 220.393 118.28C218.57 116.001 216.177 114.52 213.215 113.837C210.253 113.153 206.949 112.811 203.303 112.811C199.429 112.811 195.441 113.381 191.34 114.52C187.466 115.432 183.592 116.457 179.719 117.596C179.947 121.926 180.061 126.369 180.061 130.927C180.288 135.484 180.402 140.269 180.402 145.282C180.402 153.257 180.402 160.663 180.402 167.499C180.402 174.107 179.947 179.917 179.035 184.93C178.352 189.716 176.87 193.475 174.592 196.21C172.313 199.172 169.009 200.653 164.68 200.653C161.49 200.197 158.869 199.058 156.818 197.235C154.768 195.412 153.742 193.02 153.742 190.057C153.742 183.221 153.97 176.044 154.426 168.524C154.882 161.005 155.109 152.915 155.109 144.257C155.109 139.927 154.995 136.053 154.768 132.635C154.768 129.218 154.654 125.913 154.426 122.723C151.919 118.85 149.641 114.52 147.59 109.735C145.767 104.722 143.26 99.4812 140.07 94.0125ZM324.982 87.5183C326.35 86.379 328.286 85.8093 330.793 85.8093C338.54 86.4929 345.49 88.6576 351.643 92.3035C357.795 95.7214 362.922 100.051 367.023 105.292C371.353 110.305 374.543 115.887 376.594 122.04C378.872 128.192 380.012 134.117 380.012 139.813V141.522C381.607 146.763 383.316 150.865 385.139 153.827C386.962 156.789 388.898 159.068 390.949 160.663C393.228 162.258 395.393 163.283 397.443 163.739C399.722 163.967 402.001 164.081 404.279 164.081C406.33 164.081 408.495 163.625 410.773 162.714C413.28 161.802 416.128 161.346 419.318 161.346C422.281 161.346 424.673 162.6 426.496 165.106C428.547 167.385 429.572 169.891 429.572 172.626C429.572 175.132 428.775 177.411 427.18 179.462C425.812 181.285 423.876 182.88 421.369 184.247C419.09 185.386 416.47 186.298 413.508 186.981C410.773 187.437 408.039 187.665 405.305 187.665C396.646 187.665 389.126 185.842 382.746 182.196C376.366 178.55 371.353 174.335 367.707 169.55C363.15 174.79 357.681 178.892 351.301 181.854C344.921 184.816 338.199 186.298 331.135 186.298C324.755 186.298 318.374 185.272 311.994 183.221C305.614 181.171 299.917 178.094 294.904 173.993C289.891 169.891 285.79 164.878 282.6 158.954C279.41 152.802 277.814 145.624 277.814 137.421C277.814 132.635 278.612 127.622 280.207 122.382C282.03 117.141 284.65 112.128 288.068 107.343C291.486 102.557 295.588 98.3419 300.373 94.696C305.386 91.0502 311.197 88.5437 317.805 87.1765H319.855C322.134 87.1765 323.843 87.2904 324.982 87.5183ZM327.033 109.052C319.058 111.558 313.247 115.204 309.602 119.989C305.956 124.546 304.133 129.901 304.133 136.053C304.133 143.345 305.956 149.611 309.602 154.852C313.475 159.865 320.539 162.372 330.793 162.372C336.717 162.372 341.958 160.207 346.516 155.878C351.073 151.548 353.352 145.738 353.352 138.446C353.352 133.433 352.554 129.331 350.959 126.141C349.592 122.723 347.655 119.989 345.148 117.938C342.87 115.66 340.135 113.951 336.945 112.811C333.755 111.444 330.451 110.191 327.033 109.052ZM446.32 94.0125C444.497 91.5059 443.586 89.2273 443.586 87.1765C443.586 83.7585 445.181 80.7963 448.371 78.2898C451.561 75.7833 454.865 74.53 458.283 74.53C461.018 74.53 463.41 75.5554 465.461 77.6062C467.74 79.657 469.79 82.0496 471.613 84.7839C473.436 87.5183 475.031 90.4806 476.398 93.6707C477.766 96.6329 478.905 99.1394 479.816 101.19C484.374 97.5444 490.184 94.3542 497.248 91.6199C504.54 88.6576 512.287 87.1765 520.49 87.1765C527.782 87.1765 534.732 88.6576 541.34 91.6199C548.176 94.5821 554.1 98.5697 559.113 103.583C564.354 108.596 568.456 114.634 571.418 121.698C574.608 128.534 576.203 135.826 576.203 143.573C576.203 149.953 575.178 156.789 573.127 164.081C571.076 171.372 567.658 178.094 562.873 184.247C558.088 190.399 551.822 195.526 544.074 199.628C536.555 203.729 527.326 205.78 516.389 205.78C511.148 205.78 506.021 205.21 501.008 204.071C495.995 203.16 491.21 201.792 486.652 199.969C486.424 212.73 486.197 223.212 485.969 231.415C485.969 239.618 485.513 246.112 484.602 250.897C483.918 255.682 482.437 258.986 480.158 260.809C478.107 262.86 474.917 263.885 470.588 263.885C467.398 263.43 464.663 262.29 462.385 260.468C460.334 258.872 459.309 256.594 459.309 253.632V251.923L460.334 225.262C460.79 215.92 461.018 206.122 461.018 195.868C461.245 185.842 461.359 175.816 461.359 165.79C461.359 155.992 461.245 147.105 461.018 139.13C461.018 130.927 460.904 125.458 460.676 122.723C458.169 118.85 455.891 114.52 453.84 109.735C452.017 104.722 449.51 99.4812 446.32 94.0125ZM486.311 126.825C486.311 133.205 486.424 140.725 486.652 149.384C486.88 157.815 486.994 166.587 486.994 175.702C495.881 179.576 504.768 181.512 513.654 181.512C520.718 181.512 526.529 180.487 531.086 178.436C535.871 176.385 539.631 173.765 542.365 170.575C545.1 167.157 546.923 163.397 547.834 159.296C548.973 155.194 549.543 151.206 549.543 147.333C549.543 136.395 546.467 127.85 540.314 121.698C534.39 115.546 526.643 112.469 517.072 112.469C510.464 112.469 504.768 113.951 499.982 116.913C495.425 119.647 490.868 122.951 486.311 126.825ZM600.812 19.5007C598.99 17.45 598.078 15.1713 598.078 12.6648C598.078 9.01896 599.559 6.05672 602.521 3.77808C605.712 1.27157 609.016 0.0183105 612.434 0.0183105C615.852 0.0183105 619.156 1.84123 622.346 5.48706C625.536 8.90503 628.384 13.0066 630.891 17.7917C633.397 22.349 635.562 26.7924 637.385 31.1218C639.208 35.4513 640.461 38.4135 641.145 40.0085L642.17 66.3269C642.17 70.8842 642.17 75.4415 642.17 79.9988C642.398 84.3282 642.626 88.6576 642.854 92.9871C646.727 90.2527 651.398 88.088 656.867 86.4929C662.564 84.67 668.033 83.7585 673.273 83.7585C678.742 83.7585 684.439 84.8979 690.363 87.1765C696.288 89.4552 701.757 92.7592 706.77 97.0886C711.783 101.418 715.884 106.773 719.074 113.153C722.264 119.533 723.859 126.825 723.859 135.028C723.859 144.143 722.264 152.232 719.074 159.296C716.112 166.359 711.896 172.398 706.428 177.411C700.959 182.196 694.465 185.842 686.945 188.348C679.426 190.855 671.223 192.108 662.336 192.108C658.007 192.108 653.905 191.538 650.031 190.399C646.385 189.032 642.967 187.209 639.777 184.93C638.638 187.893 636.929 190.057 634.65 191.425C632.6 192.792 630.321 193.475 627.814 193.475C624.396 193.475 621.32 192.45 618.586 190.399C615.852 188.348 614.484 185.386 614.484 181.512C615.168 169.663 615.738 156.333 616.193 141.522C616.877 126.483 617.219 111.444 617.219 96.405C617.219 87.0626 617.105 78.1759 616.877 69.7449C616.649 61.3139 616.307 53.4526 615.852 46.1609C613.801 41.8315 611.636 37.502 609.357 33.1726C607.079 28.8432 604.23 24.2859 600.812 19.5007ZM642.512 136.053C642.512 137.876 642.398 139.699 642.17 141.522C642.17 143.345 642.17 145.054 642.17 146.649C642.854 152.802 645.132 158.156 649.006 162.714C653.107 167.043 658.69 169.208 665.754 169.208C675.552 169.208 683.299 166.359 688.996 160.663C694.921 154.966 697.883 147.788 697.883 139.13C697.655 133.889 696.743 129.331 695.148 125.458C693.553 121.584 691.617 118.394 689.338 115.887C687.059 113.153 684.553 111.102 681.818 109.735C679.084 108.368 676.464 107.684 673.957 107.684C663.475 108.368 655.956 111.216 651.398 116.229C646.841 121.014 643.879 127.622 642.512 136.053ZM803.84 87.8601C804.751 87.1765 805.777 86.6069 806.916 86.1511C808.055 85.4675 809.309 85.1257 810.676 85.1257C816.6 85.5815 822.753 87.1765 829.133 89.9109C835.513 92.6453 841.324 96.519 846.564 101.532C851.805 106.545 856.135 112.583 859.553 119.647C862.971 126.711 864.68 134.8 864.68 143.915C864.452 153.485 862.743 161.916 859.553 169.208C856.59 176.272 852.489 182.196 847.248 186.981C842.235 191.766 836.197 195.298 829.133 197.577C822.297 200.083 814.777 201.337 806.574 201.337C800.194 201.337 793.7 200.083 787.092 197.577C780.484 195.298 774.559 191.88 769.318 187.323C764.077 182.538 759.748 176.841 756.33 170.233C752.912 163.625 751.203 155.992 751.203 147.333C751.203 139.585 752.684 132.066 755.646 124.774C758.609 117.255 762.255 110.647 766.584 104.95C771.141 99.2533 776.04 94.696 781.281 91.2781C786.75 87.8601 791.877 86.1511 796.662 86.1511C799.169 86.1511 801.561 86.7208 803.84 87.8601ZM805.891 108.026C801.789 110.077 798.029 112.242 794.611 114.52C791.421 116.571 788.573 119.078 786.066 122.04C783.788 125.002 781.965 128.648 780.598 132.977C779.458 137.307 778.889 142.662 778.889 149.042C778.889 154.738 779.8 159.41 781.623 163.055C783.674 166.701 786.18 169.663 789.143 171.942C792.333 173.993 795.751 175.474 799.396 176.385C803.27 177.069 807.03 177.411 810.676 177.411C818.423 177.411 824.917 174.335 830.158 168.182C835.399 162.03 838.02 154.51 838.02 145.624C838.02 138.788 836.994 133.205 834.943 128.876C833.12 124.546 830.614 121.128 827.424 118.622C824.462 115.887 821.044 113.837 817.17 112.469C813.296 110.874 809.536 109.393 805.891 108.026ZM943.977 87.8601C944.888 87.1765 945.913 86.6069 947.053 86.1511C948.192 85.4675 949.445 85.1257 950.812 85.1257C956.737 85.5815 962.889 87.1765 969.27 89.9109C975.65 92.6453 981.46 96.519 986.701 101.532C991.942 106.545 996.271 112.583 999.689 119.647C1003.11 126.711 1004.82 134.8 1004.82 143.915C1004.59 153.485 1002.88 161.916 999.689 169.208C996.727 176.272 992.626 182.196 987.385 186.981C982.372 191.766 976.333 195.298 969.27 197.577C962.434 200.083 954.914 201.337 946.711 201.337C940.331 201.337 933.837 200.083 927.229 197.577C920.62 195.298 914.696 191.88 909.455 187.323C904.214 182.538 899.885 176.841 896.467 170.233C893.049 163.625 891.34 155.992 891.34 147.333C891.34 139.585 892.821 132.066 895.783 124.774C898.745 117.255 902.391 110.647 906.721 104.95C911.278 99.2533 916.177 94.696 921.418 91.2781C926.887 87.8601 932.014 86.1511 936.799 86.1511C939.305 86.1511 941.698 86.7208 943.977 87.8601ZM946.027 108.026C941.926 110.077 938.166 112.242 934.748 114.52C931.558 116.571 928.71 119.078 926.203 122.04C923.924 125.002 922.102 128.648 920.734 132.977C919.595 137.307 919.025 142.662 919.025 149.042C919.025 154.738 919.937 159.41 921.76 163.055C923.811 166.701 926.317 169.663 929.279 171.942C932.469 173.993 935.887 175.474 939.533 176.385C943.407 177.069 947.167 177.411 950.812 177.411C958.56 177.411 965.054 174.335 970.295 168.182C975.536 162.03 978.156 154.51 978.156 145.624C978.156 138.788 977.131 133.205 975.08 128.876C973.257 124.546 970.751 121.128 967.561 118.622C964.598 115.887 961.18 113.837 957.307 112.469C953.433 110.874 949.673 109.393 946.027 108.026ZM1030.11 33.8562C1028.51 32.0333 1027.72 29.7546 1027.72 27.0203C1027.72 23.6023 1028.97 20.6401 1031.48 18.1335C1033.98 15.3992 1037.17 14.032 1041.05 14.032C1044.46 14.032 1047.65 15.3992 1050.62 18.1335C1053.58 20.8679 1056.2 24.2859 1058.48 28.3875C1060.99 32.489 1063.04 36.9324 1064.63 41.7175C1066.23 46.5027 1067.48 50.946 1068.39 55.0476C1069.99 62.3393 1071.01 71.6817 1071.47 83.075C1072.15 94.2403 1072.61 106.089 1072.83 118.622C1087.65 114.748 1098.47 110.077 1105.3 104.608C1112.37 98.9115 1115.9 92.3035 1115.9 84.7839C1115.9 81.1381 1114.99 77.4923 1113.17 73.8464C1111.34 70.2006 1110.43 67.1244 1110.43 64.6179C1110.43 61.8835 1111.91 59.6049 1114.88 57.782C1117.84 55.7312 1121.14 54.7058 1124.79 54.7058C1126.84 54.7058 1128.89 55.2755 1130.94 56.4148C1132.99 57.3263 1134.81 59.0352 1136.41 61.5417C1138.23 63.8204 1139.71 67.0105 1140.85 71.1121C1141.99 75.2136 1142.56 80.3406 1142.56 86.4929C1142.56 92.1895 1141.54 97.4304 1139.48 102.216C1137.43 107.001 1134.7 111.33 1131.28 115.204C1127.86 119.078 1123.99 122.496 1119.66 125.458C1115.56 128.42 1111.34 130.813 1107.01 132.635C1116.58 138.104 1125.01 145.282 1132.31 154.169C1139.6 163.055 1144.73 173.309 1147.69 184.93C1147.69 185.386 1147.69 185.842 1147.69 186.298C1147.92 186.753 1148.03 187.209 1148.03 187.665C1148.03 191.311 1146.55 194.045 1143.59 195.868C1140.85 197.919 1137.78 198.944 1134.36 198.944C1130.03 198.944 1127.41 197.463 1126.5 194.501C1123.31 186.298 1119.66 179.462 1115.56 173.993C1111.68 168.296 1107.47 163.625 1102.91 159.979C1098.35 156.333 1093.46 153.599 1088.21 151.776C1083.2 149.725 1077.96 148.13 1072.49 146.991C1072.04 152.915 1071.81 159.068 1071.81 165.448C1071.81 171.828 1071.35 177.753 1070.44 183.221C1069.76 188.69 1068.28 193.134 1066 196.552C1063.95 200.197 1060.64 202.02 1056.09 202.02C1052.9 202.02 1050.16 201.109 1047.88 199.286C1045.6 197.691 1044.46 195.184 1044.46 191.766C1044.46 180.145 1044.81 167.613 1045.49 154.169C1046.4 140.725 1046.86 127.395 1046.86 114.178C1046.86 104.38 1046.52 95.1518 1045.83 86.4929C1045.38 77.6062 1044.24 69.6309 1042.41 62.5671L1038.31 49.5789C1037.63 47.3002 1036.49 44.9076 1034.89 42.4011C1033.53 39.6667 1031.93 36.8184 1030.11 33.8562Z" fill="black"/>
</svg>
